<?xml version="1.0" standalone="no"?>
<!DOCTYPE svg PUBLIC "-//W3C//DTD SVG 20010904//EN"
 "http://www.w3.org/TR/2001/REC-SVG-20010904/DTD/svg10.dtd">
<svg version="1.0" xmlns="http://www.w3.org/2000/svg"
 width="204.000000pt" height="192.000000pt" viewBox="0 0 204.000000 192.000000"
 preserveAspectRatio="xMidYMid meet">

<g transform="translate(0.000000,192.000000) scale(0.100000,-0.100000)"
fill="#000000" stroke="none">
<path d="M330 1916 c0 -2 27 -36 60 -77 l60 -73 0 -88 0 -88 -61 -57 c-75 -71
-165 -203 -209 -308 -99 -239 -91 -535 21 -758 44 -87 119 -193 179 -252 27
-27 50 -52 50 -56 0 -4 -27 -40 -60 -79 -33 -39 -60 -74 -60 -77 0 -12 22 8
86 82 l69 80 3 801 2 801 -61 76 c-51 65 -79 91 -79 73z m80 -453 c0 -28 -15
-59 -62 -132 -107 -165 -146 -312 -135 -520 3 -64 13 -137 21 -162 19 -55 20
-59 1 -59 -8 0 -15 -4 -15 -10 0 -25 -19 -6 -32 33 -8 23 -20 58 -27 77 -38
108 -19 341 39 495 17 44 33 89 35 99 3 11 10 23 16 26 6 4 11 11 11 16 1 23
81 144 95 144 2 0 1 -4 -2 -10 -3 -6 1 -7 10 -4 9 4 14 12 11 19 -6 15 2 25
21 25 8 0 13 -13 13 -37z m-183 -925 c-3 -8 -6 -5 -6 6 -1 11 2 17 5 13 3 -3
4 -12 1 -19z"/>
<path d="M536 1906 c6 -15 44 -18 44 -4 0 14 30 8 36 -7 8 -20 24 -19 24 2 0
16 1 16 16 1 14 -14 20 -14 55 0 22 8 43 12 47 7 4 -4 1 -10 -5 -12 -7 -3 -13
-12 -13 -21 1 -15 2 -15 15 2 9 12 22 17 35 13 11 -3 18 -1 14 4 -3 5 2 9 10
9 11 0 16 -10 17 -27 0 -16 2 -50 4 -78 21 -285 26 -455 21 -770 -3 -198 -3
-460 1 -582 l6 -223 436 0 c240 0 441 -4 447 -8 7 -4 -3 -21 -28 -46 -21 -22
-38 -35 -38 -28 0 9 -5 9 -20 0 -11 -7 -18 -18 -16 -24 3 -7 -3 -10 -15 -7
-16 5 -20 1 -17 -13 2 -16 -4 -19 -36 -20 -25 -1 -42 -7 -48 -18 -11 -19 -84
-23 -90 -4 -3 9 -18 8 -59 -5 -45 -14 -108 -18 -371 -21 -307 -4 -318 -3 -318
15 0 11 7 19 16 19 8 0 12 4 9 10 -3 5 -17 10 -31 10 -17 0 -24 5 -24 20 0 27
-14 25 -28 -3 -8 -17 -11 -18 -11 -4 -1 18 -21 25 -21 7 0 -14 -19 -12 -35 4
-8 8 -10 17 -5 22 12 12 1 56 -11 48 -5 -3 -9 18 -9 45 0 28 -4 51 -8 51 -4 0
-6 69 -4 153 3 83 3 163 2 177 -1 14 -4 279 -5 590 -2 311 -3 572 -4 580 -1
15 -51 80 -51 66 0 -4 9 -25 21 -48 20 -40 21 -47 17 -837 l-3 -796 -35 -45
c-19 -25 -37 -47 -40 -50 -3 -3 -16 -18 -29 -33 l-24 -27 664 0 664 0 95 116
c52 63 96 121 98 128 4 19 -30 25 -109 19 -38 -3 -69 -1 -69 3 0 4 22 40 49
79 89 128 140 266 161 430 26 212 -43 465 -178 647 -103 140 -299 277 -465
325 -99 29 -254 47 -324 38 l-53 -6 0 70 0 71 -190 0 c-160 0 -189 -2 -184
-14z m595 -167 c46 -6 88 -15 94 -20 5 -5 20 -9 35 -10 21 -1 19 -2 -10 -10
-35 -8 -268 -12 -280 -4 -4 3 -5 16 -2 30 5 30 28 32 163 14z m216 -55 c-3 -3
-12 -4 -19 -1 -8 3 -5 6 6 6 11 1 17 -2 13 -5z m61 -34 c17 -11 32 -17 32 -14
0 15 76 -40 77 -56 1 -16 -1 -18 -17 -8 -10 7 -16 18 -12 26 4 12 -1 14 -24 8
-21 -5 -25 -4 -14 4 12 7 7 10 -20 11 -19 1 -46 1 -58 0 -15 -1 -21 2 -17 9 4
6 1 17 -5 25 -19 23 18 19 58 -5z m47 -78 c-3 -3 -11 0 -18 7 -9 10 -8 11 6 5
10 -3 15 -9 12 -12z m-193 -56 c10 -11 18 -26 18 -33 0 -8 14 -19 31 -25 18
-6 28 -15 25 -24 -3 -7 0 -14 6 -16 7 -3 -17 -20 -53 -39 -41 -23 -69 -46 -79
-65 -15 -29 -16 -28 -16 60 0 50 -3 107 -8 127 -8 34 -6 37 20 46 20 7 30 7
33 -1 2 -5 12 -19 23 -30z m388 -113 c-10 -15 -10 -14 -6 9 5 20 3 26 -7 22
-10 -4 -12 3 -9 27 l5 33 14 -37 c11 -27 12 -40 3 -54z m201 -247 c16 -43 34
-100 40 -125 13 -57 13 -235 0 -276 -8 -25 -9 -26 -10 -7 -1 21 -21 33 -21 12
0 -5 -6 -10 -14 -10 -11 0 -14 19 -15 82 0 45 -3 98 -6 118 -21 131 -32 174
-62 243 l-34 78 23 24 22 23 24 -41 c13 -23 37 -78 53 -121z m-413 -301 c-3
-4 -55 -19 -114 -34 -60 -16 -118 -32 -129 -35 -12 -5 -10 -2 5 8 27 15 139
52 180 59 40 7 64 7 58 2z m423 -184 c6 -14 5 -20 -1 -16 -6 3 -10 14 -11 23
0 12 -3 10 -10 -7 -6 -16 -6 -28 1 -37 9 -10 7 -11 -9 -7 -24 6 -28 42 -9 61
16 16 29 11 39 -17z m-242 -110 c10 -6 -3 -13 -43 -21 -33 -7 -56 -17 -56 -24
0 -14 -28 -42 -34 -35 -2 2 1 20 8 39 7 23 19 36 36 41 36 10 73 10 89 0z
m205 -375 c-22 -24 -42 -45 -47 -45 -15 -2 33 78 50 82 35 9 35 6 -3 -37z
m-1168 -126 c8 0 14 -4 14 -10 0 -5 -21 -10 -47 -10 -43 0 -45 1 -27 15 10 8
25 12 32 10 8 -3 20 -5 28 -5z"/>
<path d="M1078 1723 c6 -2 18 -2 25 0 6 3 1 5 -13 5 -14 0 -19 -2 -12 -5z"/>
</g>
</svg>
